<svg width="275" height="294" viewBox="0 0 275 294" fill="none" xmlns="http://www.w3.org/2000/svg">
<path d="M139.623 6.7432L198.575 73.4536C199.14 74.0933 199.452 74.9175 199.452 75.7712V218.229C199.452 219.082 199.14 219.907 198.575 220.546L139.623 287.257C138.23 288.833 135.77 288.833 134.377 287.257L75.4254 220.546C74.8601 219.907 74.5481 219.082 74.5481 218.229V75.7712C74.5481 74.9175 74.8601 74.0933 75.4254 73.4536L134.377 6.7432C135.77 5.16675 138.23 5.16675 139.623 6.7432Z" stroke="black" stroke-width="5"/>
<path d="M76.75 75.8971L135.702 109.933C136.785 110.558 137.452 111.714 137.452 112.964V181.036C137.452 182.286 136.785 183.442 135.702 184.067L76.75 218.103C75.6671 218.728 74.3329 218.728 73.25 218.103L14.2981 184.067C13.2152 183.442 12.5481 182.286 12.5481 181.036V112.964C12.5481 111.714 13.2152 110.558 14.2981 109.933L73.25 75.8971C74.3329 75.2719 75.6671 75.2719 76.75 75.8971Z" stroke="black" stroke-width="5"/>
<path d="M201.323 75.4704L260.275 109.506C261.358 110.132 262.025 111.287 262.025 112.537V180.609C262.025 181.86 261.358 183.015 260.275 183.64L201.323 217.676C200.24 218.301 198.906 218.301 197.823 217.676L138.871 183.64C137.788 183.015 137.121 181.86 137.121 180.609V112.537C137.121 111.287 137.788 110.132 138.871 109.506L197.823 75.4704C198.906 74.8452 200.24 74.8452 201.323 75.4704Z" stroke="black" stroke-width="5"/>
</svg>
