<svg width="255" height="288" viewBox="0 0 255 288" fill="none" xmlns="http://www.w3.org/2000/svg">
<path fill-rule="evenodd" clip-rule="evenodd" d="M127 21.1623L78.0617 76.5412L126.952 104.768C126.957 104.771 126.963 104.774 126.968 104.777C127.175 104.619 127.393 104.473 127.621 104.341L175.882 76.4778L127 21.1623ZM191.107 69.7006C190.917 69.3819 190.697 69.0796 190.448 68.7981L131.496 2.08773C129.108 -0.614757 124.892 -0.614754 122.504 2.08774L63.5521 68.7981C63.1101 69.2982 62.7584 69.8642 62.5066 70.4707C62.3347 70.5493 62.1657 70.6364 62 70.7321L3.0481 104.768C1.19169 105.84 0.0480957 107.821 0.0480957 109.964V178.036C0.0480957 180.179 1.19169 182.16 3.0481 183.232L62 217.268C62.1657 217.364 62.3347 217.451 62.5066 217.529C62.7584 218.136 63.1101 218.702 63.5521 219.202L122.504 285.912C124.892 288.615 129.108 288.615 131.496 285.912L190.448 219.202C190.946 218.639 191.329 217.992 191.584 217.298C191.923 217.178 192.255 217.025 192.573 216.841L251.525 182.805C253.382 181.734 254.525 179.753 254.525 177.609V109.537C254.525 107.394 253.382 105.413 251.525 104.341L192.573 70.3053C192.107 70.0361 191.614 69.8346 191.107 69.7006ZM175.952 94.9128L140.621 115.311V171.836L175.952 192.234V94.9128ZM191.952 198.725V88.4218L238.525 115.311V171.836L191.952 198.725ZM175.952 210.709L127.621 182.805C127.616 182.802 127.61 182.799 127.605 182.796C127.399 182.954 127.181 183.1 126.952 183.232L78.0617 211.459L127 266.838L175.952 211.443V210.709ZM16.0481 172.262L62.0481 198.821V89.1795L16.0481 115.738V172.262ZM78.0481 95.0085V192.991L113.952 172.262V115.738L78.0481 95.0085Z" fill="url(#paint0_radial_109_28)"/>
<defs>
<radialGradient id="paint0_radial_109_28" cx="0" cy="0" r="1" gradientUnits="userSpaceOnUse" gradientTransform="translate(127.287 144) rotate(91.59) scale(244.594 216.215)">
<stop stop-color="#BDFF00"/>
<stop offset="0.79822" stop-color="#232323"/>
</radialGradient>
</defs>
</svg>
